<svg xmlns="http://www.w3.org/2000/svg" width="24" height="24" viewBox="0 0 24 24">
    <g fill="none" fill-rule="evenodd">
        <g fill="#909599" fill-rule="nonzero">
            <g>
                <g>
                    <g>
                        <g>
                            <g>
                                <path d="M19.368 6.452c0-.117-.031-.226-.085-.32L17.386.441C17.298.178 17.052 0 16.774 0H2.581c-.278 0-.525.178-.612.441L.033 6.247c-.032.098-.037.2-.018.3-.009.074-.015.15-.015.227 0 1.098.48 2.149 1.29 2.878v9.058c0 .356.29.645.645.645H17.42c.357 0 .646-.29.646-.645V9.652c.81-.73 1.29-1.781 1.29-2.878 0-.054-.003-.107-.008-.16.014-.051.02-.106.02-.162zM7.742 18.065v-4.527h3.87v4.527h-3.87zm9.032 0h-3.87v-5.172c0-.356-.29-.645-.646-.645H7.097c-.356 0-.645.289-.645.645v5.172H2.58v-7.638c.01.004.02.004.03.008.132.046.271.075.41.106.069.015.135.039.206.05.21.035.425.054.644.054 1.122 0 2.18-.499 2.903-1.325.724.826 1.781 1.325 2.903 1.325 1.123 0 2.18-.499 2.904-1.325.723.826 1.78 1.325 2.903 1.325.219 0 .434-.019.644-.054.069-.01.133-.034.2-.049.141-.03.282-.06.418-.107.009-.004.019-.005.028-.008v7.638zm.255-9.224c-.443.336-.977.514-1.545.514-1 0-1.89-.566-2.32-1.476-.107-.226-.334-.37-.583-.37-.25 0-.477.144-.583.37-.431.91-1.32 1.476-2.32 1.476-1 0-1.89-.566-2.32-1.476-.107-.226-.334-.37-.584-.37-.25 0-.476.144-.583.37-.43.91-1.32 1.476-2.32 1.476-.568 0-1.102-.178-1.548-.516-.646-.486-1.033-1.258-1.033-2.065 0-.05.009-.098.015-.147l.013-.102c.003-.02.004-.042.004-.063L3.046 1.29h13.263l1.723 5.17c0 .022.002.044.004.065l.014.102c.006.05.015.097.015.147 0 .807-.387 1.579-1.036 2.067z" transform="translate(-69 -356) translate(45 96) translate(24 258) translate(0 2) translate(2 2)"/>
                            </g>
                        </g>
                    </g>
                </g>
            </g>
        </g>
    </g>
</svg>
